{
	"asset":{
		"generator":"Khronos glTF Blender I/O v3.6.27",
		"version":"2.0"
	},
	"scene":0,
	"scenes":[
		{
			"name":"Scene",
			"nodes":[
				0,
				1,
				2,
				3,
				4
			]
		}
	],
	"nodes":[
		{
			"mesh":0,
			"name":"torus",
			"rotation":[
				0.3535533845424652,
				-0.1464466005563736,
				-0.3535533845424652,
				0.8535534143447876
			],
			"translation":[
				0,
				1,
				0
			]
		},
		{
			"mesh":1,
			"name":"cube_black",
			"rotation":[
				0,
				0.3826834559440613,
				0,
				0.9238795638084412
			],
			"scale":[
				0.4999999701976776,
				0.5,
				0.4999999701976776
			],
			"translation":[
				-1,
				1,
				3
			]
		},
		{
			"mesh":2,
			"name":"icosphere",
			"translation":[
				1,
				2,
				-2
			]
		},
		{
			"mesh":3,
			"name":"cube_blue",
			"translation":[
				-3,
				1,
				-1
			]
		},
		{
			"mesh":4,
			"name":"plane",
			"scale":[
				15,
				0.009999999776482582,
				15
			]
		}
	],
	"materials":[
		{
			"doubleSided":true,
			"name":"mat_yellow",
			"pbrMetallicRoughness":{
				"baseColorFactor":[
					0.8000000715255737,
					0.6043238043785095,
					0,
					1
				],
				"metallicFactor":0,
				"roughnessFactor":0.4000000059604645
			}
		},
		{
			"doubleSided":true,
			"name":"mat_black",
			"pbrMetallicRoughness":{
				"baseColorFactor":[
					0.06477685272693634,
					0.04363538697361946,
					0.04916903376579285,
					1
				],
				"metallicFactor":0,
				"roughnessFactor":0.4000000059604645
			}
		},
		{
			"doubleSided":true,
			"name":"mat_red",
			"pbrMetallicRoughness":{
				"baseColorFactor":[
					0.8000000715255737,
					0.12223514914512634,
					0.15539689362049103,
					1
				],
				"metallicFactor":0,
				"roughnessFactor":0.4000000059604645
			}
		},
		{
			"doubleSided":true,
			"name":"mat_blue",
			"pbrMetallicRoughness":{
				"baseColorFactor":[
					0.06845368444919586,
					0.19323387742042542,
					0.8000000715255737,
					1
				],
				"metallicFactor":0,
				"roughnessFactor":0.4000000059604645
			}
		},
		{
			"doubleSided":true,
			"name":"plane_mat",
			"pbrMetallicRoughness":{
				"baseColorFactor":[
					0.6449520587921143,
					0.8000000715255737,
					0.178208127617836,
					1
				],
				"metallicFactor":0,
				"roughnessFactor":0.4000000059604645
			}
		}
	],
	"meshes":[
		{
			"name":"Torus",
			"primitives":[
				{
					"attributes":{
						"POSITION":0,
						"NORMAL":1,
						"TEXCOORD_0":2
					},
					"indices":3,
					"material":0
				}
			]
		},
		{
			"name":"Cube.001",
			"primitives":[
				{
					"attributes":{
						"POSITION":4,
						"NORMAL":5,
						"TEXCOORD_0":6
					},
					"indices":7,
					"material":1
				}
			]
		},
		{
			"name":"Icosphere",
			"primitives":[
				{
					"attributes":{
						"POSITION":8,
						"NORMAL":9,
						"TEXCOORD_0":10
					},
					"indices":11,
					"material":2
				}
			]
		},
		{
			"name":"Cube.002",
			"primitives":[
				{
					"attributes":{
						"POSITION":12,
						"NORMAL":13,
						"TEXCOORD_0":14
					},
					"indices":7,
					"material":3
				}
			]
		},
		{
			"name":"Cube.003",
			"primitives":[
				{
					"attributes":{
						"POSITION":15,
						"NORMAL":16,
						"TEXCOORD_0":17
					},
					"indices":7,
					"material":4
				}
			]
		}
	],
	"accessors":[
		{
			"bufferView":0,
			"componentType":5126,
			"count":2304,
			"max":[
				1.25,
				0.25,
				1.25
			],
			"min":[
				-1.25,
				-0.25,
				-1.25
			],
			"type":"VEC3"
		},
		{
			"bufferView":1,
			"componentType":5126,
			"count":2304,
			"type":"VEC3"
		},
		{
			"bufferView":2,
			"componentType":5126,
			"count":2304,
			"type":"VEC2"
		},
		{
			"bufferView":3,
			"componentType":5123,
			"count":3456,
			"type":"SCALAR"
		},
		{
			"bufferView":4,
			"componentType":5126,
			"count":24,
			"max":[
				1,
				1,
				1
			],
			"min":[
				-1,
				-1,
				-1
			],
			"type":"VEC3"
		},
		{
			"bufferView":5,
			"componentType":5126,
			"count":24,
			"type":"VEC3"
		},
		{
			"bufferView":6,
			"componentType":5126,
			"count":24,
			"type":"VEC2"
		},
		{
			"bufferView":7,
			"componentType":5123,
			"count":36,
			"type":"SCALAR"
		},
		{
			"bufferView":8,
			"componentType":5126,
			"count":240,
			"max":[
				0.9510578513145447,
				1,
				0.9999999403953552
			],
			"min":[
				-0.9510578513145447,
				-1,
				-0.9999999403953552
			],
			"type":"VEC3"
		},
		{
			"bufferView":9,
			"componentType":5126,
			"count":240,
			"type":"VEC3"
		},
		{
			"bufferView":10,
			"componentType":5126,
			"count":240,
			"type":"VEC2"
		},
		{
			"bufferView":11,
			"componentType":5123,
			"count":240,
			"type":"SCALAR"
		},
		{
			"bufferView":12,
			"componentType":5126,
			"count":24,
			"max":[
				1,
				1,
				1
			],
			"min":[
				-1,
				-1,
				-1
			],
			"type":"VEC3"
		},
		{
			"bufferView":13,
			"componentType":5126,
			"count":24,
			"type":"VEC3"
		},
		{
			"bufferView":14,
			"componentType":5126,
			"count":24,
			"type":"VEC2"
		},
		{
			"bufferView":15,
			"componentType":5126,
			"count":24,
			"max":[
				1,
				1,
				1
			],
			"min":[
				-1,
				-1,
				-1
			],
			"type":"VEC3"
		},
		{
			"bufferView":16,
			"componentType":5126,
			"count":24,
			"type":"VEC3"
		},
		{
			"bufferView":17,
			"componentType":5126,
			"count":24,
			"type":"VEC2"
		}
	],
	"bufferViews":[
		{
			"buffer":0,
			"byteLength":27648,
			"byteOffset":0,
			"target":34962
		},
		{
			"buffer":0,
			"byteLength":27648,
			"byteOffset":27648,
			"target":34962
		},
		{
			"buffer":0,
			"byteLength":18432,
			"byteOffset":55296,
			"target":34962
		},
		{
			"buffer":0,
			"byteLength":6912,
			"byteOffset":73728,
			"target":34963
		},
		{
			"buffer":0,
			"byteLength":288,
			"byteOffset":80640,
			"target":34962
		},
		{
			"buffer":0,
			"byteLength":288,
			"byteOffset":80928,
			"target":34962
		},
		{
			"buffer":0,
			"byteLength":192,
			"byteOffset":81216,
			"target":34962
		},
		{
			"buffer":0,
			"byteLength":72,
			"byteOffset":81408,
			"target":34963
		},
		{
			"buffer":0,
			"byteLength":2880,
			"byteOffset":81480,
			"target":34962
		},
		{
			"buffer":0,
			"byteLength":2880,
			"byteOffset":84360,
			"target":34962
		},
		{
			"buffer":0,
			"byteLength":1920,
			"byteOffset":87240,
			"target":34962
		},
		{
			"buffer":0,
			"byteLength":480,
			"byteOffset":89160,
			"target":34963
		},
		{
			"buffer":0,
			"byteLength":288,
			"byteOffset":89640,
			"target":34962
		},
		{
			"buffer":0,
			"byteLength":288,
			"byteOffset":89928,
			"target":34962
		},
		{
			"buffer":0,
			"byteLength":192,
			"byteOffset":90216,
			"target":34962
		},
		{
			"buffer":0,
			"byteLength":288,
			"byteOffset":90408,
			"target":34962
		},
		{
			"buffer":0,
			"byteLength":288,
			"byteOffset":90696,
			"target":34962
		},
		{
			"buffer":0,
			"byteLength":192,
			"byteOffset":90984,
			"target":34962
		}
	],
	"buffers":[
		{
			"byteLength":91176,
			"uri":"scene_3.bin"
		}
	]
}
